<svg xmlns="http://www.w3.org/2000/svg" xmlns:xlink="http://www.w3.org/1999/xlink" width="16" height="14"><defs><path id="a" d="M843 816c0-2.761 2.006-5 4.48-5 1.428 0 2.7.745 3.52 1.907.82-1.162 2.092-1.907 3.52-1.907 2.474 0 4.48 2.239 4.48 5s-2.006 5-4.48 5c-1.428 0-2.7-.745-3.52-1.907-.82 1.162-2.092 1.907-3.52 1.907-2.474 0-4.48-2.239-4.48-5z"/><path id="d" d="M843 827v-16h16v16z"/><path id="b" d="M843 820.5c0-2.485 3.582-4.5 8-4.5s8 2.015 8 4.5-3.582 4.5-8 4.5-8-2.015-8-4.5z"/><clipPath id="c"><use xlink:href="#a"/></clipPath><clipPath id="e"><use xlink:href="#b"/></clipPath></defs><use fill="#fb5f8a" xlink:href="#a" transform="translate(-843 -811)"/><g clip-path="url(#c)" transform="translate(-843 -811)"><use fill="#fc719f" xlink:href="#d"/><use fill="#ed5267" xlink:href="#d"/></g><use fill="#fb5f8a" xlink:href="#b" transform="translate(-843 -811)"/><g clip-path="url(#e)" transform="translate(-843 -811)"><use fill="#3e4056" xlink:href="#d" opacity=".6"/><use fill="#fc719f" xlink:href="#d"/><use fill="#ed5267" xlink:href="#d"/></g></svg>