<svg xmlns="http://www.w3.org/2000/svg" xmlns:xlink="http://www.w3.org/1999/xlink" width="19" height="20"><defs><path id="a" d="M474 274a2 2 0 0 1-2-2v-12a2 2 0 0 1 2-2h10a2 2 0 0 1 2 2v1"/><path id="b" d="M475 262a1 1 0 0 1 1-1h6a1 1 0 0 1 0 2h-6a1 1 0 0 1-1-1z"/><path id="c" d="M475 266a1 1 0 0 1 1-1h4v2h-4a1 1 0 0 1-1-1z"/><path id="d" d="M478.48 265a2 2 0 0 1 2-2h4a2 2 0 0 1 2 2v13.49a.5.5 0 0 1-.5.5h-5.5a2 2 0 0 1-2-2zm2 10.03a1 1 0 0 0 1 1h3V269h-4zm4-9.03a1 1 0 0 0-1-1h-2a1 1 0 0 0-1 1v1h4z"/></defs><g clip-path="url(#clip-7836277D-2583-4AE7-B0B5-C558500CE97E)" transform="translate(-471 -257)"><use fill="#fff" fill-opacity="0" stroke="#3e4056" stroke-miterlimit="50" stroke-width="2" xlink:href="#a"/><use fill="#3e4056" xlink:href="#b"/><use fill="#3e4056" xlink:href="#c"/><use fill="#3e4056" xlink:href="#d" transform="rotate(45 483.5 270)"/></g></svg>