<svg xmlns="http://www.w3.org/2000/svg" xmlns:xlink="http://www.w3.org/1999/xlink" width="14" height="16"><defs><path id="a" d="M1235.353 39.2v-4.4c0-2.456-1.754-4.512-4.118-5.056V29.2c0-.664-.551-1.2-1.235-1.2s-1.235.536-1.235 1.2v.544c-2.364.544-4.118 2.6-4.118 5.056v4.4L1223 40.8v.8h14v-.8l-1.647-1.6zm-5.348 4.8c.909 0 1.652-.72 1.652-1.6h-3.304c0 .88.743 1.6 1.652 1.6z"/><path id="c" d="M1235.353 39.2v-4.4c0-2.456-1.754-4.512-4.118-5.056V29.2c0-.664-.551-1.2-1.235-1.2s-1.235.536-1.235 1.2v.544c-2.364.544-4.118 2.6-4.118 5.056v4.4L1223 40.8v.8h14v-.8l-1.647-1.6zm-5.348 4.8c.909 0 1.652-.72 1.652-1.6h-3.304c0 .88.743 1.6 1.652 1.6z"/><clipPath id="b"><use fill="#fff" xlink:href="#a"/></clipPath></defs><use fill="#fff" fill-opacity="0" stroke="#3e4056" stroke-miterlimit="50" stroke-width="4" clip-path="url(&quot;#b&quot;)" xlink:href="#c" opacity=".98" transform="translate(-1223 -28)"/></svg>