<svg xmlns="http://www.w3.org/2000/svg" xmlns:xlink="http://www.w3.org/1999/xlink" width="16" height="14" viewBox="0 0 16 14"><defs><path id="xbera" d="M843 816c0-2.761 2.006-5 4.48-5 1.428 0 2.7.745 3.52 1.907.82-1.162 2.092-1.907 3.52-1.907 2.474 0 4.48 2.239 4.48 5s-2.006 5-4.48 5c-1.428 0-2.7-.745-3.52-1.907-.82 1.162-2.092 1.907-3.52 1.907-2.474 0-4.48-2.239-4.48-5z"/><path id="xberd" d="M843 827v-16h16v16z"/><path id="xberb" d="M843 820.5c0-2.485 3.582-4.5 8-4.5s8 2.015 8 4.5-3.582 4.5-8 4.5-8-2.015-8-4.5z"/><clipPath id="xberc"><use xlink:href="#xbera"/></clipPath><clipPath id="xbere"><use xlink:href="#xberb"/></clipPath></defs><g><g transform="translate(-843 -811)"><g><use fill="#fb5f8a" xlink:href="#xbera"/></g><g clip-path="url(#xberc)"><g><use fill="#fc719f" xlink:href="#xberd"/></g><g><use fill="#ed5267" xlink:href="#xberd"/></g></g><g><use fill="#fb5f8a" xlink:href="#xberb"/></g><g clip-path="url(#xbere)"><g opacity=".6"><use fill="#3e4056" xlink:href="#xberd"/></g><g><use fill="#fc719f" xlink:href="#xberd"/></g><g><use fill="#ed5267" xlink:href="#xberd"/></g></g></g></g></svg>