<svg xmlns="http://www.w3.org/2000/svg" xmlns:xlink="http://www.w3.org/1999/xlink" width="16" height="13" viewBox="0 0 16 13"><defs><path id="kbc4a" d="M1287.897 31.652a.642.642 0 0 0-.201-.535l-1.494-1.842V29h4.638l3.586 8.048 3.152-8.048H1302v.275l-1.277 1.254a.387.387 0 0 0-.142.366v9.21c-.023.14.032.28.142.366l1.247 1.254V42h-6.274v-.275l1.292-1.284c.127-.13.127-.168.127-.367V32.63l-3.593 9.34h-.486l-4.183-9.34v6.26a.876.876 0 0 0 .232.718l1.68 2.086v.275H1286v-.275l1.68-2.086c.18-.19.26-.457.217-.719z"/></defs><g><g transform="translate(-1286 -29)"><use fill="#3e3f58" xlink:href="#kbc4a"/></g></g></svg>