<svg xmlns="http://www.w3.org/2000/svg" xmlns:xlink="http://www.w3.org/1999/xlink" width="16" height="16" viewBox="0 0 16 16"><defs><path id="8gzea" d="M1255 34a3 3 0 0 1 3-3h8a3 3 0 0 1 3 3v6a3 3 0 0 1-3 3h-8a3 3 0 0 1-3-3z"/><path id="8gzeb" d="M1254 33a2 2 0 0 1 2-2h12a2 2 0 0 1 2 2v3a1 1 0 0 1-1 1h-14a1 1 0 0 1-1-1z"/><path id="8gzed" d="M1257 30.73c0-1.105 1.12-2 2.5-2s2.5.895 2.5 2-1.12 2-2.5 2-2.5-.895-2.5-2z"/><path id="8gzee" d="M1267 30.73c0-1.105-1.12-2-2.5-2s-2.5.895-2.5 2 1.12 2 2.5 2 2.5-.895 2.5-2z"/><path id="8gzef" d="M1261 42V32h2v10z"/><clipPath id="8gzec"><use fill="#fff" xlink:href="#8gzea"/></clipPath><clipPath id="8gzeg"><use fill="#fff" xlink:href="#8gzeb"/></clipPath></defs><g><g opacity=".98" transform="translate(-1254 -27)"/><g opacity=".98" transform="translate(-1254 -27)"><use fill="#fff" fill-opacity="0" stroke="#3e4056" stroke-miterlimit="50" stroke-width="4" clip-path="url(&quot;#8gzec&quot;)" xlink:href="#8gzea"/></g><g opacity=".98" transform="rotate(20 709.062 -3538.894)"><use fill="#fff" fill-opacity="0" stroke="#3e4056" stroke-miterlimit="50" stroke-width="2" xlink:href="#8gzed"/></g><g opacity=".98" transform="rotate(20 714.062 -3538.894)"><use fill="#fff" fill-opacity="0" stroke="#3e4056" stroke-miterlimit="50" stroke-width="2" xlink:href="#8gzee"/></g><g opacity=".98" transform="translate(-1254 -27)"><use fill="#3e4056" xlink:href="#8gzef"/></g><g opacity=".98" transform="translate(-1254 -27)"><use fill="#fff" xlink:href="#8gzeb"/><use fill="#fff" fill-opacity="0" stroke="#3e4056" stroke-miterlimit="50" stroke-width="4" clip-path="url(&quot;#8gzeg&quot;)" xlink:href="#8gzeb"/></g></g></svg>